Coordinates
version=1
nRows=17
nColumns=24
inDegrees=yes

Units are S.I. units (second, meters, Newtons, ...)
Angles are in degrees.

endheader
time	pelvis_tilt	pelvis_list	pelvis_rotation	pelvis_tx	pelvis_ty	pelvis_tz	hip_flexion_r	hip_adduction_r	hip_rotation_r	knee_angle_r	ankle_angle_r	subtalar_angle_r	mtp_angle_r	hip_flexion_l	hip_adduction_l	hip_rotation_l	knee_angle_l	ankle_angle_l	subtalar_angle_l	mtp_angle_l	lumbar_extension	lumbar_bending	lumbar_rotation
      1.37900000	      2.56351342	     -5.41735337	     -8.02301201	      0.84482022	      0.97511669	      0.37352187	    -22.86715460	      5.39084508	     -1.95367993	     -6.69244525	     12.68479617	     -0.75424566	      3.37152562	     27.06163721	     -9.34256696	     -9.75479069	      3.95634949	      2.07068669	    -14.44251184	     -8.88743051	    -13.53780688	      4.17389344	      9.50989639
      1.38316667	      2.52689718	     -5.41898244	     -8.40572748	      0.85049548	      0.97399848	      0.37429388	    -23.06648702	      5.18835729	     -1.70039774	     -6.93221480	     12.78227382	     -0.51328338	      3.52608913	     27.18340540	     -9.58442087	     -9.71391758	      3.27324477	      2.49412471	    -14.37187900	     -8.92795549	    -13.52673229	      3.97716449	      9.88614439
      1.38733333	      2.50696233	     -5.38498789	     -8.79527653	      0.85632046	      0.97294760	      0.37509157	    -23.29589817	      4.94355586	     -1.45125445	     -7.13849128	     12.76738106	     -0.36583364	      3.72434978	     27.25129676	     -9.78990584	     -9.70734501	      2.59870373	      2.92210559	    -14.27163986	     -8.97909634	    -13.50249209	      3.72662741	     10.19588145
      1.39150000	      2.49482990	     -5.35911444	     -9.15561657	      0.86218904	      0.97190499	      0.37578072	    -23.53383319	      4.70720286	     -1.24000758	     -7.34249747	     12.72796022	     -0.20262746	      3.92211873	     27.31391802	     -9.98196737	     -9.65461362	      1.88260811	      3.36173637	    -14.19567847	     -9.02721669	    -13.48703923	      3.49945442	     10.44580213
      1.39566667	      2.47491839	     -5.32654134	     -9.52394715	      0.86811569	      0.97086792	      0.37644626	    -23.75230249	      4.45448895	     -1.04743761	     -7.56677762	     12.67153246	     -0.02059733	      4.15208651	     27.36553296	    -10.16560220	     -9.60525614	      1.15736174	      3.80558237	    -14.12540864	     -9.08148012	    -13.45876647	      3.26446363	     10.71773853
      1.39983333	      2.50413060	     -5.28745634	     -9.99215730	      0.87407407	      0.97001747	      0.37736222	    -24.02310216	      4.15962812	     -0.67865040	     -7.77867049	     12.53229459	     -0.04273774	      5.07242783	     27.30661900	    -10.39151117	     -9.74494349	      0.44680702	      4.25369768	    -13.88443380	     -9.28825312	    -13.48402266	      2.98209418	     11.01751553
      1.40400000	      2.46989677	     -5.24955624	    -10.26294008	      0.88016926	      0.96892160	      0.37766886	    -24.21874804	      3.90918557	     -0.67651741	     -8.01519664	     12.45023287	      0.32220534	      5.25423099	     27.37087571	    -10.49793692	     -9.57642310	     -0.28660132	      4.63392526	    -13.86605749	     -9.31682950	    -13.41997245	      2.79073609	     11.22550391
      1.40816667	      2.44151318	     -5.20363418	    -10.62168209	      0.88629245	      0.96793029	      0.37817250	    -24.40724323	      3.62216815	     -0.54491825	     -8.27184478	     12.34772910	      0.58818183	      5.49737146	     27.37963272	    -10.64060320	     -9.56389987	     -1.00348435	      4.99010528	    -13.74703929	     -9.35178928	    -13.36128534	      2.56307962	     11.47190709
      1.41233333	      2.45796903	     -5.12535441	    -11.06783107	      0.89250637	      0.96711666	      0.37892369	    -24.64495875	      3.27175459	     -0.27444596	     -8.50591624	     12.14622197	      0.63678326	      6.20224596	     27.27848282	    -10.79263158	     -9.75078754	     -1.68111459	      5.34737299	    -13.49078862	     -9.43824772	    -13.33202976	      2.24915760	     11.79095329
      1.41650000	      2.44713731	     -5.10208240	    -11.34303541	      0.89870553	      0.96614665	      0.37911942	    -24.84010715	      3.01099076	     -0.26730368	     -8.78107597	     11.98037992	      0.99946976	      6.42387100	     27.26537355	    -10.89007684	     -9.66312572	     -2.38227400	      5.60015394	    -13.42829443	     -9.45006464	    -13.30272286	      2.08436234	     11.96250578
      1.42066667	      2.41444774	     -5.02780393	    -11.68903701	      0.90502584	      0.96523636	      0.37948902	    -24.99457561	      2.68062667	     -0.18999828	     -9.07299213	     11.78012780	      1.28250758	      6.72586110	     27.22687916	    -10.97494761	     -9.74256185	     -3.04492666	      5.81309768	    -13.27942879	     -9.46214354	    -13.21465976	      1.83957657	     12.19184002
      1.42483333	      2.54934303	     -4.96887701	    -12.15525552	      0.91128308	      0.96474922	      0.38017687	    -25.32752597	      2.29698185	      0.11386621	     -9.32807442	     11.43045682	      1.29072020	      8.02904623	     26.91865653	    -11.11185480	    -10.05713520	     -3.61247340	      5.94404104	    -13.02649697	     -9.45414049	    -13.33286665	      1.53045077	     12.57142907
      1.42900000	      2.44785352	     -4.86671824	    -12.39735362	      0.91776627	      0.96373235	      0.38021754	    -25.37945688	      1.97227125	      0.01431049	     -9.67252999	     11.22325017	      1.68447476	      8.25585726	     26.96295877	    -11.10424381	    -10.05661584	     -4.23610292	      5.99147503	    -12.99240601	     -9.44130241	    -13.13980945	      1.31018324	     12.64065550
      1.43316667	      2.43088750	     -4.76403484	    -12.70982084	      0.92423825	      0.96295813	      0.38041421	    -25.50546426	      1.60397339	      0.02147537	    -10.02224271	     10.94245318	      1.99190550	      8.62207763	     26.86838465	    -11.11793411	    -10.22815057	     -4.79932878	      5.95287686	    -12.88747426	     -9.40565528	    -13.04948230	      1.04910635	     12.82967020
      1.43733333	      2.46416433	     -4.69542087	    -13.03739762	      0.93067331	      0.96234621	      0.38069056	    -25.68433241	      1.26044286	      0.11417306	    -10.34860449	     10.48664807	      2.04461134	     16.07729843	     26.70677979	    -11.17102246	    -10.49217218	     -5.34855077	      5.84461321	    -12.69883476	     -8.22243616	    -13.03441851	      0.80721721	     13.01976930
      1.44150000	      2.44782964	     -4.54380351	    -13.29688915	      0.93723940	      0.96166981	      0.38071550	    -25.77018581	      0.85501983	      0.05183317	    -10.74545503	     10.13699413	      2.32896595	     16.11908551	     26.58715412	    -11.08620114	    -10.64495176	     -5.79688520	      5.51035027	    -12.80850405	     -8.20483601	    -12.92544298	      0.50771776	     13.12612322
      1.44566667	      2.47859993	     -4.38715249	    -13.56173540	      0.94382693	      0.96113791	      0.38077505	    -25.88865774	      0.43098088	     -0.00552549	    -11.15602451	      9.72749883	      2.60953518	     16.20494312	     26.41064069	    -10.99423538	    -10.88213358	     -6.23331477	      5.11963326	    -12.85144206	     -8.16656391	    -12.86095150	      0.18536516	     13.25145987
